<svg xmlns="http://www.w3.org/2000/svg" width="40" height="40" viewBox="0 0 40 40">
  <g id="git" transform="translate(-5722 -1054)">
    <g id="icono" transform="translate(5722 1054)">
      <rect id="Rectángulo_2" data-name="Rectángulo 2" width="40" height="40" rx="4" fill="#697fdd" opacity="0.124"/>
    </g>
    <path id="_001-github" data-name="001-github" d="M10,.5A9.913,9.913,0,0,0,0,10.327,9.843,9.843,0,0,0,6.837,19.65c.5.092.683-.212.683-.472,0-.233-.008-.852-.013-1.671C4.727,18.1,4.14,16.188,4.14,16.188a2.619,2.619,0,0,0-1.112-1.438c-.906-.609.07-.6.07-.6a2.092,2.092,0,0,1,1.532,1.012,2.153,2.153,0,0,0,2.912.818,2.081,2.081,0,0,1,.633-1.314C5.954,14.424,3.62,13.579,3.62,9.814A3.754,3.754,0,0,1,4.649,7.178a3.438,3.438,0,0,1,.088-2.6s.838-.263,2.75,1.008a9.588,9.588,0,0,1,5,0c1.9-1.271,2.737-1.008,2.737-1.008a3.533,3.533,0,0,1,.1,2.6,3.77,3.77,0,0,1,1.025,2.637c0,3.775-2.337,4.606-4.563,4.847a2.332,2.332,0,0,1,.675,1.818c0,1.315-.012,2.372-.012,2.691,0,.257.175.565.688.467A9.813,9.813,0,0,0,20,10.327,9.915,9.915,0,0,0,10,.5Z" transform="translate(5732 1063.5)" fill="#697fdd"/>
  </g>
</svg>
