<svg id="Grupo_25" data-name="Grupo 25" xmlns="http://www.w3.org/2000/svg" xmlns:xlink="http://www.w3.org/1999/xlink" width="1920" height="1015" viewBox="0 0 1920 1015">
  <defs>
    <clipPath id="clip-path">
      <rect id="Rectángulo_35" data-name="Rectángulo 35" width="1920" height="1015" fill="#fff" stroke="#707070" stroke-width="1"/>
    </clipPath>
  </defs>
  <g id="Enmascarar_grupo_1" data-name="Enmascarar grupo 1" clip-path="url(#clip-path)">
    <g id="Grupo_10" data-name="Grupo 10" transform="translate(-88 -92)" opacity="0.1">
      <path id="Trazado_6" data-name="Trazado 6" d="M1647.811,796.556c0-422.184-342.572-764.756-764.756-764.756S118.3,374.372,118.3,796.556s342.572,764.755,764.755,764.755S1647.811,1218.74,1647.811,796.556Zm-1437.837,0c0-371.522,301.56-673.082,673.081-673.082s673.081,301.56,673.081,673.082-301.559,673.082-673.081,673.082S209.974,1165.665,209.974,796.556Z" transform="translate(555.609 -587.891)" fill="none" stroke="#fff" stroke-width="1"/>
      <path id="Trazado_7" data-name="Trazado 7" d="M717.207,775.369,656.9,654.744H316.736l84.437-149.574,77.2,82.024V437.622L456.66,413.5l74.787-154.4L791.994,729.531V519.646L533.859,46.8,377.048,333.885,140.625,80.575V232.561L331.21,435.209,135.8,775.369Z" transform="translate(960.293 -241.019)" fill="none" stroke="#fff" stroke-width="1"/>
    </g>
  </g>
</svg>
